<svg xmlns="http://www.w3.org/2000/svg" xmlns:xlink="http://www.w3.org/1999/xlink" version="1.1" id="Layer_1" x="0px" y="0px" viewBox="0 0 300 70" style="enable-background:new 0 0 300 70;" xml:space="preserve">
<style type="text/css">
	.st0{fill:#FFFFFF;}
	.st1{fill:#274F9E;}
	.st2{fill:#878787;}
</style>
    <g id="Layer_1_00000014603298618622376390000010418224475028850843_">
</g>
    <g id="Layer_2_00000062885500550523683620000014598461044928590989_">
</g>
    <g id="Layer_3">
	<rect class="st0" width="300" height="70"/>
        <g>
		<g>
			<g>
				<path class="st1" d="M41.3,35c0,8.7-7,15.7-15.7,15.7C17,50.7,10,43.7,10,35s7-15.7,15.7-15.7C34.3,19.3,41.3,26.3,41.3,35z"/>
                <g>
					<path class="st0" d="M32.1,39.4c0,1.8-0.6,3.2-1.9,4.2s-3.1,1.5-5.4,1.5c-2.1,0-4-0.4-5.6-1.2V40c1.3,0.6,2.5,1,3.4,1.3       c0.9,0.2,1.8,0.4,2.5,0.4c0.9,0,1.6-0.2,2.1-0.5c0.5-0.4,0.7-0.9,0.7-1.6c0-0.4-0.1-0.7-0.3-1c-0.2-0.3-0.5-0.6-1-0.9       c-0.4-0.3-1.3-0.7-2.6-1.3c-1.2-0.6-2.1-1.1-2.7-1.6s-1.1-1.1-1.4-1.8c-0.4-0.7-0.5-1.5-0.5-2.4c0-1.7,0.6-3.1,1.8-4.1       c1.2-1,2.8-1.5,4.9-1.5c1,0,2,0.1,2.9,0.4c0.9,0.2,1.9,0.6,2.9,1l-1.3,3.3c-1.1-0.4-1.9-0.7-2.6-0.9c-0.7-0.2-1.4-0.3-2-0.3       c-0.8,0-1.4,0.2-1.8,0.6s-0.6,0.9-0.6,1.4c0,0.4,0.1,0.7,0.3,1c0.2,0.3,0.4,0.5,0.8,0.8s1.3,0.7,2.7,1.4       c1.8,0.9,3.1,1.8,3.8,2.7C31.8,37,32.1,38.1,32.1,39.4z"/>
				</g>
			</g>
            <path class="st1" d="M74.6,35c0,8.7-7,15.7-15.7,15.7s-15.7-7-15.7-15.7s7-15.7,15.7-15.7S74.6,26.3,74.6,35z"/>
            <g>
				<path class="st0" d="M53.6,44.7V25h4.2v16.3h8v3.5L53.6,44.7L53.6,44.7z"/>
			</g>
            <g>
				<ellipse class="st1" cx="92.2" cy="35" rx="15.7" ry="15.7"/>
                <g>
					<path class="st0" d="M92.9,28.4c-1.6,0-2.8,0.6-3.7,1.8C88.4,31.3,88,33,88,35.1c0,4.4,1.7,6.6,5,6.6c1.4,0,3.1-0.3,5-1v3.5       c-1.6,0.7-3.4,1-5.4,1c-2.9,0-5.1-0.9-6.6-2.6c-1.5-1.7-2.3-4.2-2.3-7.5c0-2.1,0.4-3.8,1.1-5.4c0.7-1.5,1.8-2.7,3.2-3.5       c1.4-0.8,3-1.2,4.9-1.2s3.8,0.5,5.8,1.4l-1.3,3.4c-0.7-0.4-1.5-0.7-2.2-0.9C94.4,28.5,93.6,28.4,92.9,28.4z"/>
				</g>
			</g>
		</g>
            <g>
			<path class="st2" d="M120.1,35.9c0,0.9-0.3,1.6-1,2.1c-0.6,0.5-1.5,0.7-2.6,0.7s-2-0.2-2.7-0.5v-1.5c0.4,0.2,0.9,0.4,1.4,0.5     s1,0.2,1.4,0.2c0.6,0,1.1-0.1,1.4-0.4c0.3-0.2,0.5-0.6,0.5-1s-0.1-0.7-0.4-0.9c-0.3-0.3-0.9-0.6-1.7-0.9     c-0.9-0.4-1.5-0.8-1.9-1.2c-0.4-0.5-0.6-1-0.6-1.7c0-0.8,0.3-1.5,0.9-1.9c0.6-0.5,1.4-0.7,2.4-0.7c0.9,0,1.9,0.2,2.8,0.6     l-0.5,1.3c-0.9-0.4-1.7-0.6-2.3-0.6c-0.5,0-0.9,0.1-1.2,0.3c-0.3,0.2-0.4,0.5-0.4,0.9c0,0.3,0.1,0.5,0.2,0.7s0.3,0.4,0.5,0.5     c0.2,0.2,0.7,0.4,1.3,0.6c0.7,0.3,1.3,0.6,1.6,0.8c0.3,0.3,0.6,0.6,0.7,0.9C120,35.1,120.1,35.5,120.1,35.9z"/>
                <path class="st2" d="M125.2,38.7c-0.9,0-1.7-0.3-2.2-1h-0.1c0.1,0.6,0.1,1,0.1,1.1v3.1h-1.6V31.1h1.3c0,0.1,0.1,0.5,0.2,1h0.1     c0.5-0.8,1.2-1.1,2.2-1.1c0.9,0,1.7,0.3,2.2,1c0.5,0.7,0.8,1.6,0.8,2.8s-0.3,2.2-0.8,2.9C126.9,38.4,126.1,38.7,125.2,38.7z      M124.8,32.3c-0.6,0-1.1,0.2-1.4,0.6c-0.3,0.4-0.4,1-0.4,1.8v0.2c0,0.9,0.1,1.6,0.4,2s0.8,0.6,1.4,0.6c0.5,0,1-0.2,1.3-0.7     c0.3-0.4,0.4-1.1,0.4-1.9c0-0.8-0.1-1.5-0.4-1.9C125.8,32.5,125.4,32.3,124.8,32.3z"/>
                <path class="st2" d="M132.9,38.7c-1.2,0-2.1-0.3-2.7-1c-0.7-0.7-1-1.6-1-2.8s0.3-2.2,0.9-2.9c0.6-0.7,1.4-1,2.5-1     c1,0,1.8,0.3,2.3,0.9c0.6,0.6,0.9,1.4,0.9,2.5v0.9h-5c0,0.7,0.2,1.3,0.6,1.7c0.4,0.4,0.9,0.6,1.6,0.6c0.4,0,0.9,0,1.2-0.1     c0.4-0.1,0.8-0.2,1.2-0.4v1.3c-0.4,0.2-0.8,0.3-1.2,0.4C133.9,38.7,133.5,38.7,132.9,38.7z M132.7,32.2c-0.5,0-0.9,0.2-1.2,0.5     s-0.5,0.8-0.5,1.4h3.4c0-0.6-0.2-1.1-0.4-1.4C133.6,32.4,133.2,32.2,132.7,32.2z"/>
                <path class="st2" d="M140.3,38.7c-1.1,0-2-0.3-2.6-1s-0.9-1.6-0.9-2.8c0-1.3,0.3-2.2,0.9-2.9c0.6-0.7,1.5-1,2.7-1     c0.8,0,1.5,0.1,2.1,0.4l-0.5,1.3c-0.7-0.3-1.2-0.4-1.7-0.4c-1.3,0-1.9,0.9-1.9,2.6c0,0.8,0.2,1.5,0.5,1.9s0.8,0.6,1.4,0.6     c0.7,0,1.4-0.2,2-0.5v1.4c-0.3,0.2-0.6,0.3-0.9,0.4C141.2,38.7,140.8,38.7,140.3,38.7z"/>
                <path class="st2" d="M143.6,29.1c0-0.3,0.1-0.5,0.2-0.7c0.2-0.2,0.4-0.2,0.7-0.2s0.5,0.1,0.7,0.2c0.2,0.2,0.2,0.4,0.2,0.7     c0,0.3-0.1,0.5-0.2,0.6s-0.4,0.2-0.7,0.2s-0.5-0.1-0.7-0.2S143.6,29.4,143.6,29.1z M145.2,38.6h-1.6v-7.5h1.6V38.6z"/>
                <path class="st2" d="M151.7,38.6l-0.3-1h-0.1c-0.4,0.5-0.7,0.8-1.1,0.9c-0.4,0.2-0.8,0.2-1.4,0.2c-0.7,0-1.3-0.2-1.7-0.6     c-0.4-0.4-0.6-1-0.6-1.7c0-0.8,0.3-1.3,0.9-1.7c0.6-0.4,1.4-0.6,2.6-0.6h1.3v-0.4c0-0.5-0.1-0.8-0.3-1.1c-0.2-0.2-0.6-0.4-1-0.4     s-0.7,0.1-1.1,0.2c-0.4,0.1-0.7,0.2-1,0.4l-0.5-1.1c0.4-0.2,0.8-0.4,1.3-0.5s0.9-0.2,1.4-0.2c0.9,0,1.7,0.2,2.1,0.6     c0.5,0.4,0.7,1.1,0.7,2v5C152.9,38.6,151.7,38.6,151.7,38.6z M149.3,37.5c0.6,0,1-0.2,1.4-0.5c0.3-0.3,0.5-0.8,0.5-1.4V35h-1     c-0.7,0-1.3,0.2-1.6,0.4s-0.5,0.6-0.5,1c0,0.3,0.1,0.6,0.3,0.8C148.6,37.4,148.9,37.5,149.3,37.5z"/>
                <path class="st2" d="M156.1,38.6h-1.6V28.1h1.6V38.6z"/>
                <path class="st2" d="M157.8,29.1c0-0.3,0.1-0.5,0.2-0.7c0.2-0.2,0.4-0.2,0.7-0.2s0.5,0.1,0.7,0.2c0.2,0.2,0.2,0.4,0.2,0.7     c0,0.3-0.1,0.5-0.2,0.6c-0.2,0.2-0.4,0.2-0.7,0.2s-0.5-0.1-0.7-0.2C157.9,29.6,157.8,29.4,157.8,29.1z M159.5,38.6h-1.6v-7.5h1.6     V38.6z"/>
                <path class="st2" d="M166.4,36.5c0,0.7-0.3,1.3-0.8,1.7s-1.3,0.6-2.3,0.6s-1.8-0.2-2.4-0.5v-1.4c0.9,0.4,1.7,0.6,2.5,0.6     c1,0,1.5-0.3,1.5-0.9c0-0.2-0.1-0.3-0.2-0.5c-0.1-0.1-0.3-0.3-0.5-0.4c-0.2-0.1-0.6-0.3-1-0.5c-0.9-0.3-1.4-0.7-1.7-1     s-0.5-0.8-0.5-1.3c0-0.6,0.3-1.1,0.8-1.5s1.2-0.5,2.1-0.5c0.9,0,1.7,0.2,2.5,0.5l-0.5,1.2c-0.8-0.3-1.5-0.5-2-0.5     c-0.8,0-1.3,0.2-1.3,0.7c0,0.2,0.1,0.4,0.3,0.6c0.2,0.2,0.7,0.4,1.4,0.7c0.6,0.2,1.1,0.5,1.3,0.7c0.3,0.2,0.5,0.4,0.6,0.7     C166.4,35.8,166.4,36.1,166.4,36.5z"/>
                <path class="st2" d="M170.7,37.4c0.4,0,0.8-0.1,1.2-0.2v1.2c-0.2,0.1-0.4,0.1-0.7,0.2c-0.3,0.1-0.6,0.1-0.9,0.1     c-1.5,0-2.3-0.8-2.3-2.4v-4h-1v-0.7l1.1-0.6l0.5-1.6h1v1.7h2.1v1.2h-2.1v4c0,0.4,0.1,0.7,0.3,0.8     C170.2,37.4,170.4,37.4,170.7,37.4z"/>
                <path class="st2" d="M176.5,38.6v-9.9h1.6v8.5h4.2v1.4H176.5z"/>
                <path class="st2" d="M188.3,38.6l-0.3-1h-0.1c-0.4,0.5-0.7,0.8-1.1,0.9c-0.4,0.2-0.8,0.2-1.4,0.2c-0.7,0-1.3-0.2-1.7-0.6     c-0.4-0.4-0.6-1-0.6-1.7c0-0.8,0.3-1.3,0.9-1.7c0.6-0.4,1.4-0.6,2.6-0.6h1.3v-0.4c0-0.5-0.1-0.8-0.3-1.1c-0.2-0.2-0.6-0.4-1-0.4     s-0.7,0.1-1.1,0.2c-0.4,0.1-0.7,0.2-1,0.4l-0.5-1.1c0.4-0.2,0.8-0.4,1.3-0.5s0.9-0.2,1.4-0.2c0.9,0,1.7,0.2,2.1,0.6     c0.5,0.4,0.7,1.1,0.7,2v5C189.5,38.6,188.3,38.6,188.3,38.6z M185.9,37.5c0.6,0,1-0.2,1.4-0.5c0.3-0.3,0.5-0.8,0.5-1.4V35h-1     c-0.7,0-1.3,0.2-1.6,0.4s-0.5,0.6-0.5,1c0,0.3,0.1,0.6,0.3,0.8C185.2,37.4,185.5,37.5,185.9,37.5z"/>
                <path class="st2" d="M197.8,38.6h-1.6V34c0-0.6-0.1-1-0.3-1.3s-0.6-0.4-1.1-0.4c-0.7,0-1.2,0.2-1.5,0.6c-0.3,0.4-0.5,1.1-0.5,2     v3.7h-1.6v-7.5h1.2l0.2,1h0.1c0.2-0.4,0.5-0.6,1-0.8c0.4-0.2,0.9-0.3,1.4-0.3c1.8,0,2.7,0.9,2.7,2.7L197.8,38.6L197.8,38.6z"/>
                <path class="st2" d="M205.8,31.1V32l-1.3,0.2c0.1,0.2,0.2,0.4,0.3,0.6c0.1,0.2,0.1,0.5,0.1,0.7c0,0.8-0.3,1.4-0.8,1.8     c-0.5,0.4-1.3,0.7-2.2,0.7c-0.2,0-0.5,0-0.6-0.1c-0.3,0.2-0.5,0.5-0.5,0.7s0.1,0.3,0.2,0.4c0.2,0.1,0.5,0.1,0.9,0.1h1.3     c0.8,0,1.4,0.2,1.9,0.5c0.4,0.4,0.6,0.9,0.6,1.5c0,0.8-0.3,1.5-1,2s-1.7,0.7-3,0.7c-1,0-1.8-0.2-2.3-0.5     c-0.5-0.4-0.8-0.9-0.8-1.5c0-0.5,0.1-0.8,0.4-1.2c0.3-0.3,0.7-0.5,1.2-0.7c-0.2-0.1-0.4-0.2-0.5-0.4s-0.2-0.4-0.2-0.6     c0-0.3,0.1-0.5,0.2-0.7c0.2-0.2,0.4-0.4,0.7-0.6c-0.4-0.2-0.7-0.4-0.9-0.8c-0.2-0.4-0.4-0.8-0.4-1.3c0-0.8,0.3-1.4,0.8-1.9     c0.5-0.4,1.2-0.7,2.2-0.7c0.2,0,0.4,0,0.7,0c0.2,0,0.4,0.1,0.5,0.1L205.8,31.1L205.8,31.1z M200,39.8c0,0.3,0.2,0.6,0.5,0.8     s0.7,0.3,1.3,0.3c0.9,0,1.5-0.1,1.9-0.4c0.4-0.2,0.6-0.6,0.6-1c0-0.3-0.1-0.6-0.3-0.7c-0.2-0.1-0.7-0.2-1.3-0.2h-1.2     c-0.5,0-0.8,0.1-1.1,0.3C200.1,39.1,200,39.4,200,39.8z M200.7,33.5c0,0.5,0.1,0.8,0.4,1.1c0.2,0.3,0.6,0.4,1,0.4     c0.9,0,1.4-0.5,1.4-1.5c0-0.5-0.1-0.9-0.3-1.1c-0.2-0.3-0.6-0.4-1-0.4c-0.5,0-0.8,0.1-1,0.4C200.8,32.7,200.7,33,200.7,33.5z"/>
                <path class="st2" d="M212.1,38.6l-0.2-1h-0.1c-0.2,0.3-0.5,0.6-0.9,0.8s-0.9,0.3-1.4,0.3c-0.9,0-1.6-0.2-2-0.7     c-0.4-0.4-0.7-1.1-0.7-2v-4.9h1.6v4.6c0,0.6,0.1,1,0.4,1.3c0.2,0.3,0.6,0.4,1.1,0.4c0.7,0,1.2-0.2,1.5-0.6c0.3-0.4,0.5-1.1,0.5-2     v-3.7h1.6v7.5H212.1z"/>
                <path class="st2" d="M219.8,38.6l-0.3-1h-0.1c-0.4,0.5-0.7,0.8-1.1,0.9c-0.4,0.2-0.8,0.2-1.4,0.2c-0.7,0-1.3-0.2-1.7-0.6     c-0.4-0.4-0.6-1-0.6-1.7c0-0.8,0.3-1.3,0.9-1.7c0.6-0.4,1.4-0.6,2.6-0.6h1.3v-0.4c0-0.5-0.1-0.8-0.3-1.1c-0.2-0.2-0.6-0.4-1-0.4     s-0.7,0.1-1.1,0.2c-0.4,0.1-0.7,0.2-1,0.4l-0.5-1.1c0.4-0.2,0.8-0.4,1.3-0.5s0.9-0.2,1.4-0.2c0.9,0,1.7,0.2,2.1,0.6     c0.5,0.4,0.7,1.1,0.7,2v5C221,38.6,219.8,38.6,219.8,38.6z M217.5,37.5c0.6,0,1-0.2,1.4-0.5c0.3-0.3,0.5-0.8,0.5-1.4V35h-1     c-0.7,0-1.3,0.2-1.6,0.4s-0.5,0.6-0.5,1c0,0.3,0.1,0.6,0.3,0.8C216.8,37.4,217.1,37.5,217.5,37.5z"/>
                <path class="st2" d="M229.1,31.1V32l-1.3,0.2c0.1,0.2,0.2,0.4,0.3,0.6c0.1,0.2,0.1,0.5,0.1,0.7c0,0.8-0.3,1.4-0.8,1.8     c-0.5,0.4-1.3,0.7-2.2,0.7c-0.2,0-0.5,0-0.6-0.1c-0.3,0.2-0.5,0.5-0.5,0.7s0.1,0.3,0.2,0.4c0.2,0.1,0.5,0.1,0.9,0.1h1.3     c0.8,0,1.4,0.2,1.9,0.5c0.4,0.4,0.6,0.9,0.6,1.5c0,0.8-0.3,1.5-1,2s-1.7,0.7-3,0.7c-1,0-1.8-0.2-2.3-0.5     c-0.5-0.4-0.8-0.9-0.8-1.5c0-0.5,0.1-0.8,0.4-1.2c0.3-0.3,0.7-0.5,1.2-0.7c-0.2-0.1-0.4-0.2-0.5-0.4s-0.2-0.4-0.2-0.6     c0-0.3,0.1-0.5,0.2-0.7c0.2-0.2,0.4-0.4,0.7-0.6c-0.4-0.2-0.7-0.4-0.9-0.8c-0.2-0.4-0.4-0.8-0.4-1.3c0-0.8,0.3-1.4,0.8-1.9     c0.5-0.4,1.2-0.7,2.2-0.7c0.2,0,0.4,0,0.7,0c0.2,0,0.4,0.1,0.5,0.1L229.1,31.1L229.1,31.1z M223.2,39.8c0,0.3,0.2,0.6,0.5,0.8     s0.7,0.3,1.3,0.3c0.9,0,1.5-0.1,1.9-0.4c0.4-0.2,0.6-0.6,0.6-1c0-0.3-0.1-0.6-0.3-0.7c-0.2-0.1-0.7-0.2-1.3-0.2h-1.2     c-0.5,0-0.8,0.1-1.1,0.3C223.3,39.1,223.2,39.4,223.2,39.8z M223.9,33.5c0,0.5,0.1,0.8,0.4,1.1c0.2,0.3,0.6,0.4,1,0.4     c0.9,0,1.4-0.5,1.4-1.5c0-0.5-0.1-0.9-0.3-1.1c-0.2-0.3-0.6-0.4-1-0.4c-0.5,0-0.8,0.1-1,0.4C224,32.7,223.9,33,223.9,33.5z"/>
                <path class="st2" d="M233.1,38.7c-1.2,0-2.1-0.3-2.7-1c-0.7-0.7-1-1.6-1-2.8s0.3-2.2,0.9-2.9c0.6-0.7,1.4-1,2.5-1     c1,0,1.8,0.3,2.3,0.9c0.6,0.6,0.9,1.4,0.9,2.5v0.9h-5c0,0.7,0.2,1.3,0.6,1.7c0.4,0.4,0.9,0.6,1.6,0.6c0.4,0,0.9,0,1.2-0.1     c0.4-0.1,0.8-0.2,1.2-0.4v1.3c-0.4,0.2-0.8,0.3-1.2,0.4C234.1,38.7,233.7,38.7,233.1,38.7z M232.9,32.2c-0.5,0-0.9,0.2-1.2,0.5     s-0.5,0.8-0.5,1.4h3.4c0-0.6-0.2-1.1-0.4-1.4C233.8,32.4,233.4,32.2,232.9,32.2z"/>
                <path class="st2" d="M245.1,30c-0.9,0-1.7,0.3-2.2,1s-0.8,1.6-0.8,2.7c0,1.2,0.3,2.1,0.8,2.7c0.5,0.6,1.2,0.9,2.2,0.9     c0.4,0,0.8,0,1.2-0.1s0.8-0.2,1.2-0.3v1.4c-0.8,0.3-1.7,0.4-2.6,0.4c-1.4,0-2.6-0.4-3.3-1.3c-0.8-0.9-1.2-2.1-1.2-3.8     c0-1,0.2-1.9,0.6-2.7c0.4-0.8,0.9-1.4,1.6-1.8c0.7-0.4,1.5-0.6,2.5-0.6s1.9,0.2,2.8,0.6l-0.6,1.3c-0.3-0.2-0.7-0.3-1.1-0.4     C245.9,30,245.5,30,245.1,30z"/>
                <path class="st2" d="M255.6,34.8c0,1.2-0.3,2.2-0.9,2.9c-0.6,0.7-1.5,1-2.6,1c-0.7,0-1.3-0.2-1.8-0.5s-0.9-0.8-1.2-1.4     c-0.3-0.6-0.4-1.3-0.4-2.1c0-1.2,0.3-2.2,0.9-2.8c0.6-0.7,1.5-1,2.6-1s1.9,0.3,2.6,1C255.3,32.7,255.6,33.7,255.6,34.8z      M250.1,34.8c0,1.7,0.6,2.6,1.9,2.6c1.3,0,1.9-0.9,1.9-2.6c0-1.7-0.6-2.6-1.9-2.6c-0.7,0-1.1,0.2-1.4,0.7     C250.3,33.4,250.1,34,250.1,34.8z"/>
                <path class="st2" d="M262.2,38.6l-0.2-1h-0.1c-0.2,0.3-0.5,0.6-0.9,0.8s-0.9,0.3-1.4,0.3c-0.9,0-1.6-0.2-2-0.7     c-0.4-0.4-0.7-1.1-0.7-2v-4.9h1.6v4.6c0,0.6,0.1,1,0.4,1.3c0.2,0.3,0.6,0.4,1.1,0.4c0.7,0,1.2-0.2,1.5-0.6c0.3-0.4,0.5-1.1,0.5-2     v-3.7h1.6v7.5H262.2z"/>
                <path class="st2" d="M269.1,31c0.3,0,0.6,0,0.8,0.1l-0.2,1.5c-0.2-0.1-0.5-0.1-0.7-0.1c-0.6,0-1.1,0.2-1.5,0.6     c-0.4,0.4-0.6,1-0.6,1.6v3.9h-1.6v-7.5h1.2l0.2,1.3h0.1c0.2-0.4,0.6-0.8,1-1.1C268.2,31.1,268.6,31,269.1,31z"/>
                <path class="st2" d="M276,36.5c0,0.7-0.3,1.3-0.8,1.7s-1.3,0.6-2.3,0.6s-1.8-0.2-2.4-0.5v-1.4c0.9,0.4,1.7,0.6,2.4,0.6     c1,0,1.5-0.3,1.5-0.9c0-0.2-0.1-0.3-0.2-0.5c-0.1-0.1-0.3-0.3-0.5-0.4c-0.2-0.1-0.6-0.3-1-0.5c-0.9-0.3-1.4-0.7-1.7-1     c-0.3-0.3-0.5-0.8-0.5-1.3c0-0.6,0.3-1.1,0.8-1.5s1.2-0.5,2.1-0.5s1.7,0.2,2.5,0.5l-0.5,1.2c-0.8-0.3-1.5-0.5-2-0.5     c-0.8,0-1.3,0.2-1.3,0.7c0,0.2,0.1,0.4,0.3,0.6c0.2,0.2,0.7,0.4,1.4,0.7c0.6,0.2,1.1,0.5,1.3,0.7c0.3,0.2,0.5,0.4,0.6,0.7     C276,35.8,276,36.1,276,36.5z"/>
                <path class="st2" d="M280.6,38.7c-1.2,0-2.1-0.3-2.7-1c-0.7-0.7-1-1.6-1-2.8s0.3-2.2,0.9-2.9s1.4-1,2.5-1c1,0,1.8,0.3,2.3,0.9     c0.6,0.6,0.9,1.4,0.9,2.5v0.9h-5c0,0.7,0.2,1.3,0.6,1.7s0.9,0.6,1.6,0.6c0.4,0,0.9,0,1.2-0.1c0.4-0.1,0.8-0.2,1.2-0.4v1.3     c-0.4,0.2-0.8,0.3-1.2,0.4C281.6,38.7,281.1,38.7,280.6,38.7z M280.3,32.2c-0.5,0-0.9,0.2-1.2,0.5c-0.3,0.3-0.5,0.8-0.5,1.4h3.4     c0-0.6-0.2-1.1-0.4-1.4C281.2,32.4,280.8,32.2,280.3,32.2z"/>
                <path class="st2" d="M290,36.5c0,0.7-0.3,1.3-0.8,1.7s-1.3,0.6-2.3,0.6s-1.8-0.2-2.4-0.5v-1.4c0.9,0.4,1.7,0.6,2.4,0.6     c1,0,1.5-0.3,1.5-0.9c0-0.2-0.1-0.3-0.2-0.5c-0.1-0.1-0.3-0.3-0.5-0.4s-0.6-0.3-1-0.5c-0.9-0.3-1.4-0.7-1.7-1     c-0.3-0.3-0.5-0.8-0.5-1.3c0-0.6,0.3-1.1,0.8-1.5s1.2-0.5,2.1-0.5s1.7,0.2,2.5,0.5l-0.5,1.2c-0.8-0.3-1.5-0.5-2-0.5     c-0.8,0-1.3,0.2-1.3,0.7c0,0.2,0.1,0.4,0.3,0.6c0.2,0.2,0.7,0.4,1.4,0.7c0.6,0.2,1.1,0.5,1.3,0.7c0.3,0.2,0.5,0.4,0.6,0.7     C289.9,35.8,290,36.1,290,36.5z"/>
		</g>
	</g>
</g>
</svg>